HIERARCHY
ROOT Hips
{
	OFFSET 49.693501 5.667956 84.328499
	CHANNELS 6 Xposition Yposition Zposition Xrotation Yrotation Zrotation
	JOINT spine
	{
		OFFSET 0.000000 -0.359108 6.244797
		CHANNELS 3 Xrotation Yrotation Zrotation
		JOINT spine1
		{
			OFFSET 0.000000 -0.000001 9.069412
			CHANNELS 3 Xrotation Yrotation Zrotation
			JOINT spine2
			{
				OFFSET 0.000000 -0.000001 8.690140
				CHANNELS 3 Xrotation Yrotation Zrotation
				JOINT Neck
				{
					OFFSET 0.000000 -1.063724 22.311195
					CHANNELS 3 Xrotation Yrotation Zrotation
					JOINT Head
					{
						OFFSET 0.000000 -0.000001 6.740814
						CHANNELS 3 Xrotation Yrotation Zrotation
						End Site
						{
							OFFSET 0.000000 5.380968 16.316498
						}
					}
				}
				JOINT RightShoulder
				{
					OFFSET -3.659161 0.509512 9.384682
					CHANNELS 3 Xrotation Yrotation Zrotation
					JOINT RightArm
					{
						OFFSET 0.000000 -0.000002 12.308899
						CHANNELS 3 Xrotation Yrotation Zrotation
						JOINT RightArmRoll
						{
							OFFSET 0.000000 -0.000001 6.213745
							CHANNELS 3 Xrotation Yrotation Zrotation
							JOINT RightForeArm
							{
								OFFSET 0.000000 -0.000003 18.098495
								CHANNELS 3 Xrotation Yrotation Zrotation
								JOINT RightForeArmRoll
								{
									OFFSET 0.000000 -0.000001 6.972794
									CHANNELS 3 Xrotation Yrotation Zrotation
									JOINT RightHand
									{
										OFFSET 0.000000 -0.000002 13.992905
										CHANNELS 3 Xrotation Yrotation Zrotation
										End Site
										{
											OFFSET 0.000000 0.000000 0.100006
										}
									}
								}
							}
						}
					}
				}
				JOINT LeftShoulder
				{
					OFFSET 3.659161 0.509512 9.384682
					CHANNELS 3 Xrotation Yrotation Zrotation
					JOINT LeftArm
					{
						OFFSET 0.000000 -0.000002 12.308899
						CHANNELS 3 Xrotation Yrotation Zrotation
						JOINT LeftArmRoll
						{
							OFFSET 0.000000 -0.000001 6.213745
							CHANNELS 3 Xrotation Yrotation Zrotation
							JOINT LeftForeArm
							{
								OFFSET 0.000000 -0.000003 18.098495
								CHANNELS 3 Xrotation Yrotation Zrotation
								JOINT LeftForeArmRoll
								{
									OFFSET 0.000000 -0.000001 6.972794
									CHANNELS 3 Xrotation Yrotation Zrotation
									JOINT LeftHand
									{
										OFFSET 0.000000 -0.000002 13.992905
										CHANNELS 3 Xrotation Yrotation Zrotation
										End Site
										{
											OFFSET 0.000000 0.000000 0.100006
										}
									}
								}
							}
						}
					}
				}
			}
		}
	}
	JOINT RightUpLeg
	{
		OFFSET -5.535160 0.851455 -1.014999
		CHANNELS 3 Xrotation Yrotation Zrotation
		JOINT RightUpLegRoll
		{
			OFFSET 0.000000 -0.000003 16.407501
			CHANNELS 3 Xrotation Yrotation Zrotation
			JOINT RightLeg
			{
				OFFSET 0.000000 0.000003 -20.318100
				CHANNELS 3 Xrotation Yrotation Zrotation
				JOINT RightLegRoll
				{
					OFFSET 0.000000 -0.000003 20.384598
					CHANNELS 3 Xrotation Yrotation Zrotation
					JOINT RightFoot
					{
						OFFSET 0.000000 -0.000003 16.966805
						CHANNELS 3 Xrotation Yrotation Zrotation
						JOINT RightToeBase
						{
							OFFSET 0.000000 -0.000002 14.183395
							CHANNELS 3 Xrotation Yrotation Zrotation
							End Site
							{
								OFFSET 0.006012 0.791744 6.868896
							}
						}
					}
				}
			}
		}
	}
	JOINT LeftUpLeg
	{
		OFFSET 5.535160 0.851455 -1.014999
		CHANNELS 3 Xrotation Yrotation Zrotation
		JOINT LeftUpLegRoll
		{
			OFFSET 0.000000 -0.000003 16.407600
			CHANNELS 3 Xrotation Yrotation Zrotation
			JOINT LeftLeg
			{
				OFFSET 0.000000 -0.000003 20.318100
				CHANNELS 3 Xrotation Yrotation Zrotation
				JOINT LeftLegRoll
				{
					OFFSET 0.000000 -0.000003 20.573105
					CHANNELS 3 Xrotation Yrotation Zrotation
					JOINT LeftFoot
					{
						OFFSET 0.000000 -0.000003 16.778305
						CHANNELS 3 Xrotation Yrotation Zrotation
						JOINT LeftToeBase
						{
							OFFSET 0.000000 -0.000002 14.183395
							CHANNELS 3 Xrotation Yrotation Zrotation
							End Site
							{
								OFFSET -0.026943 0.791744 6.868896
							}
						}
					}
				}
			}
		}
	}
}
MOTION
Frames: 8
Frame Time: 0.041667
50.642891 4.306135 93.934898 8.472092 0.912494 -2.403453 -2.739125 0.574980 -0.159855 -1.474050 1.155797 -0.297905 0.171154 1.152145 -0.311729 -15.785336 -7.842392 -2.135033 20.278929 4.169980 -0.403079 -20.902764 -42.487584 -25.034335 -119.249775 -139.251329 -89.700055 -0.000001 0.000009 0.000001 23.999869 -0.128906 -1.094474 -0.000003 0.000010 -2.999999 -5.000201 -7.998722 0.000177 -26.495998 12.835317 35.072106 -110.598562 156.518347 79.059023 0.000002 0.000029 -0.000005 12.639678 -9.565159 0.999944 0.000000 -0.000009 3.000001 -5.000192 7.999708 -0.000077 -13.035415 185.728539 -1.561988 -179.999991 0.000005 -0.943995 171.869075 1.756179 -0.586126 0.000001 -0.000002 -0.399843 64.388617 6.853945 2.507160 25.456957 -7.355618 0.000001 -13.003647 167.387910 -2.192442 -0.000004 -0.000004 -0.970821 -15.379460 -1.739595 0.802431 0.000004 0.000000 -0.126206 68.516380 -6.781685 -2.441290 25.456955 7.355623 -0.000004 
50.702194 4.235035 94.029404 8.434368 0.937012 -2.325043 -2.731521 0.562464 -0.157725 -1.458874 1.130673 -0.294180 0.186322 1.127074 -0.307703 -15.803371 -7.577639 -2.095764 20.262668 3.982776 -0.408299 -20.850156 -42.717239 -24.959444 -119.192333 -138.652594 -89.760475 -0.000001 0.000006 -0.000000 23.794243 -0.190279 -1.080978 -0.000001 0.000007 -2.999996 -5.000196 -7.998724 0.000178 -26.427887 13.156648 34.922047 -110.354130 155.885981 78.995331 0.000001 0.000032 -0.000003 12.764040 -9.437937 0.996452 0.000000 -0.000009 3.000002 -5.000195 7.999708 -0.000073 -12.974161 185.559328 -1.572611 -179.999991 0.000005 -0.938996 171.833189 1.686734 -0.588968 0.000001 -0.000002 -0.392820 64.395741 6.854203 2.505072 25.456959 -7.355614 -0.000000 -13.052634 167.468452 -2.176591 -0.000005 -0.000005 -0.964217 -15.470867 -1.698532 0.809454 0.000004 0.000001 -0.136207 68.601081 -6.780791 -2.438723 25.456950 7.355624 -0.000002 
50.677799 4.214034 94.075203 8.399042 0.957680 -2.247215 -2.724275 0.550287 -0.155462 -1.444429 1.106228 -0.290168 0.200764 1.102674 -0.303400 -15.820982 -7.309044 -2.055473 20.243987 3.793425 -0.413329 -20.801969 -42.944859 -24.890510 -119.131190 -138.058477 -89.825177 -0.000003 0.000007 0.000004 23.593053 -0.256910 -1.066374 -0.000002 0.000004 -3.000003 -5.000201 -7.998722 0.000180 -26.360340 13.489305 34.773675 -110.118318 155.265691 78.930253 0.000003 0.000032 -0.000003 12.875146 -9.317743 0.993001 0.000002 -0.000009 3.000002 -5.000192 7.999710 -0.000071 -12.921918 185.395691 -1.582785 -179.999991 0.000005 -0.933996 171.790965 1.616275 -0.591863 0.000002 -0.000002 -0.385567 64.404716 6.854418 2.503054 25.456959 -7.355617 0.000001 -13.104018 167.553980 -2.158600 -0.000005 -0.000003 -0.957850 -15.562169 -1.656780 0.816472 0.000005 0.000001 -0.145874 68.683617 -6.779969 -2.436005 25.456948 7.355622 -0.000006 
50.679199 4.188166 94.147293 8.366335 0.973412 -2.170199 -2.717409 0.538664 -0.153080 -1.430735 1.082882 -0.285897 0.214455 1.079373 -0.298848 -15.838700 -7.036767 -2.014052 20.222886 3.601909 -0.417952 -20.759807 -43.169637 -24.829650 -119.062819 -137.470111 -89.892782 -0.000003 0.000008 0.000001 23.396109 -0.329292 -1.050588 -0.000001 0.000006 -3.000003 -5.000195 -7.998726 0.000178 -26.294661 13.834829 34.628724 -109.891972 154.661451 78.863072 0.000001 0.000032 -0.000002 12.969318 -9.206202 0.989846 0.000000 -0.000009 2.999997 -5.000192 7.999711 -0.000074 -12.878971 185.237626 -1.591728 -179.999991 0.000004 -0.928996 171.743044 1.546807 -0.594563 0.000001 -0.000002 -0.378088 64.415651 6.854555 2.501397 25.456960 -7.355615 -0.000001 -13.156436 167.645395 -2.137492 -0.000005 -0.000004 -0.951800 -15.650072 -1.614574 0.823370 0.000004 -0.000000 -0.155047 68.763032 -6.779199 -2.433492 25.456952 7.355622 -0.000004 
50.657600 4.158536 94.187500 8.336426 0.983122 -2.094253 -2.710926 0.527806 -0.150599 -1.417814 1.061055 -0.281389 0.227373 1.057612 -0.294078 -15.856848 -6.760991 -1.971364 20.199682 3.408238 -0.421990 -20.725348 -43.390566 -24.779218 -118.983453 -136.888575 -89.961426 -0.000004 0.000007 0.000002 23.203428 -0.407904 -1.033599 -0.000001 0.000003 -3.000002 -5.000198 -7.998724 0.000183 -26.231978 14.194831 34.489231 -109.675995 154.077607 78.793943 0.000001 0.000032 -0.000003 13.042982 -9.104943 0.987337 0.000005 -0.000008 3.000005 -5.000191 7.999709 -0.000073 -12.846161 185.088113 -1.599389 -179.999991 0.000006 -0.924994 171.690178 1.477339 -0.598248 0.000001 -0.000001 -0.370386 64.428737 6.854571 2.500276 25.456957 -7.355616 0.000002 -13.208401 167.745539 -2.112731 -0.000004 -0.000003 -0.946148 -15.730773 -1.572195 0.830038 0.000005 0.000000 -0.163571 68.838512 -6.778516 -2.431036 25.456952 7.355622 -0.000004 
50.663094 4.139944 94.263390 8.309518 0.985726 -2.019612 -2.704839 0.517926 -0.148030 -1.405682 1.041196 -0.276669 0.239500 1.037801 -0.289122 -15.876141 -6.481903 -1.927310 20.174675 3.212396 -0.425251 -20.700179 -43.607049 -24.741481 -118.889401 -136.314757 -90.029427 -0.000003 0.000009 -0.000000 23.014809 -0.493215 -1.015338 -0.000004 0.000006 -3.000001 -5.000199 -7.998720 0.000184 -26.173749 14.570718 34.357074 -109.471123 153.518187 78.722383 0.000001 0.000032 -0.000002 13.092471 -9.015559 0.985780 0.000003 -0.000007 3.000000 -5.000191 7.999707 -0.000076 -12.823861 184.947111 -1.604988 -179.999991 0.000006 -0.921005 171.632982 1.408843 -0.600817 0.000001 -0.000001 -0.362464 64.444372 6.854412 2.499553 25.456957 -7.355617 0.000001 -13.258646 167.855314 -2.083304 -0.000004 -0.000005 -0.940974 -15.800878 -1.529902 0.836345 0.000005 0.000001 -0.171287 68.909102 -6.777950 -2.428804 25.456947 7.355623 -0.000003 
50.643696 4.100204 94.299393 8.285174 0.981670 -1.945373 -2.699266 0.508627 -0.145234 -1.394562 1.022477 -0.271465 0.250607 1.019151 -0.283694 -15.893012 -6.193923 -1.880882 20.145599 3.010550 -0.428036 -20.682923 -43.815855 -24.714186 -118.784817 -135.745065 -90.101834 -0.000000 0.000007 0.000004 22.830268 -0.586934 -0.995393 -0.000005 0.000005 -3.000003 -5.000196 -7.998720 0.000183 -26.118514 14.963788 34.228878 -109.277043 152.981894 78.645223 -0.000001 0.000033 -0.000004 13.116121 -8.939836 0.985307 0.000004 -0.000007 3.000003 -5.000194 7.999709 -0.000073 -12.811368 184.815671 -1.606515 -179.999991 0.000005 -0.917003 171.570158 1.337402 -0.604823 0.000001 -0.000001 -0.354169 64.461447 6.854209 2.499334 25.456959 -7.355616 0.000001 -13.309991 167.973900 -2.050885 -0.000005 -0.000004 -0.936118 -15.867474 -1.485714 0.842600 0.000004 0.000001 -0.178485 68.977070 -6.777385 -2.426637 25.456950 7.355623 -0.000003 
50.660496 4.079854 94.352493 8.262771 0.972714 -1.870421 -2.694281 0.499289 -0.142061 -1.384652 1.003677 -0.265507 0.260521 1.000430 -0.277510 -15.903925 -5.891857 -1.831417 20.110524 2.799268 -0.430943 -20.669621 -44.015399 -24.692093 -118.679031 -135.174648 -90.185907 -0.000001 0.000007 -0.000000 22.650337 -0.689999 -0.973511 -0.000004 0.000005 -3.000003 -5.000203 -7.998718 0.000183 -26.063763 15.373581 34.099661 -109.092266 152.462226 78.559825 0.000002 0.000031 -0.000005 13.116983 -8.877293 0.985768 0.000006 -0.000009 2.999998 -5.000192 7.999710 -0.000073 -12.807403 184.690897 -1.602159 -179.999991 0.000005 -0.913997 171.499575 1.260998 -0.609542 0.000002 -0.000002 -0.345364 64.478850 6.854059 2.499305 25.456959 -7.355615 -0.000000 -13.366363 168.098537 -2.018097 -0.000004 -0.000004 -0.931342 -15.941446 -1.437559 0.849306 0.000005 0.000001 -0.185619 69.045310 -6.776930 -2.424371 25.456952 7.355623 -0.000003 
